<svg xmlns="http://www.w3.org/2000/svg" xmlns:xlink="http://www.w3.org/1999/xlink" viewBox="0,0,256,256" width="128px" height="128px" fill-rule="nonzero"><g fill="#00b3ff" fill-rule="nonzero" stroke="none" stroke-width="1" stroke-linecap="butt" stroke-linejoin="miter" stroke-miterlimit="10" stroke-dasharray="" stroke-dashoffset="0" font-family="none" font-weight="none" font-size="none" text-anchor="none" style="mix-blend-mode: normal"><g transform="scale(2,2)"><path d="M87.9,127c-1.7,0 -3,-1.3 -3,-3v-4c0,-7.2 5.8,-13 13,-13h8c2.8,0 5,-2.2 5,-5v-14.5c0,-2.4 0.9,-4.6 2.5,-6.3l2.8,-2.8c0.8,-0.8 1,-1.9 0.7,-3c0,-0.1 -0.1,-0.2 -0.1,-0.3l-6.4,-30.7c-2.9,-14.1 -11.7,-25.8 -24,-32.2c-6,-3.1 -12.6,-4.8 -19.4,-5.2v95c0,1.7 -1.3,3 -3,3c-1.7,0 -3,-1.3 -3,-3v-98c0,-0.9 0.4,-1.7 1.1,-2.3c0.6,-0.5 1.3,-0.7 2.1,-0.7c8.7,-0.1 17.4,1.9 25,5.9c13.9,7.2 23.8,20.4 27.1,36.3l6.4,30.6c0.9,3.1 0.1,6.5 -2.2,8.8l-2.8,2.8c-0.5,0.6 -0.8,1.3 -0.8,2.1v14.5c0,6.1 -4.9,11 -11,11h-8c-3.9,0 -7,3.1 -7,7v4c0,1.7 -1.4,3 -3,3zM64,4v0zM47,29c-5.5,0 -10,-4.5 -10,-10c0,-5.5 4.5,-10 10,-10c5.5,0 10,4.5 10,10c0,5.5 -4.5,10 -10,10zM47,15c-2.2,0 -4,1.8 -4,4c0,2.2 1.8,4 4,4c2.2,0 4,-1.8 4,-4c0,-2.2 -1.8,-4 -4,-4zM52,76h-15c-0.8,0 -1.6,0.3 -2.1,0.9l-9.3,9.3c-1.4,-0.7 -3,-1.1 -4.6,-1.1c-5.5,0 -10,4.5 -10,10c0,5.5 4.5,10 10,10c5.5,0 10,-4.5 10,-10c0,-1.7 -0.4,-3.2 -1.1,-4.6l8.4,-8.4h13.7c1.7,0 3,-1.3 3,-3c0,-1.7 -1.3,-3.1 -3,-3.1zM21,99c-2.2,0 -4,-1.8 -4,-4c0,-2.2 1.8,-4 4,-4c2.2,0 4,1.8 4,4c0,2.2 -1.8,4 -4,4zM52,61h-30.5c-1.3,-4.1 -5.1,-7 -9.5,-7c-5.5,0 -10,4.5 -10,10c0,5.5 4.5,10 10,10c4.5,0 8.3,-2.9 9.5,-7h30.5c1.7,0 3,-1.3 3,-3c0,-1.7 -1.3,-3 -3,-3zM12,68c-2.2,0 -4,-1.8 -4,-4c0,-2.2 1.8,-4 4,-4c2.2,0 4,1.8 4,4c0,2.2 -1.8,4 -4,4zM21,43c1.7,0 3.2,-0.4 4.6,-1.1l9.3,9.3c0.6,0.6 1.3,0.9 2.1,0.9h15c1.7,0 3,-1.3 3,-3c0,-1.7 -1.3,-3 -3,-3h-13.8l-8.4,-8.4c0.7,-1.4 1.1,-3 1.1,-4.6c0,-5.5 -4.5,-10 -10,-10c-5.5,0 -10,4.5 -10,10c0,5.5 4.6,9.9 10.1,9.9zM21,29c2.2,0 4,1.8 4,4c0,2.2 -1.8,4 -4,4c-2.2,0 -4,-1.8 -4,-4c0,-2.2 1.8,-4 4,-4zM47,119c-5.5,0 -10,-4.5 -10,-10c0,-5.5 4.5,-10 10,-10c5.5,0 10,4.5 10,10c0,5.5 -4.5,10 -10,10zM47,105c-2.2,0 -4,1.8 -4,4c0,2.2 1.8,4 4,4c2.2,0 4,-1.8 4,-4c0,-2.2 -1.8,-4 -4,-4zM67,118v5.9c0,1.5 -1,2.8 -2.4,3.1c-1.9,0.4 -3.6,-1.1 -3.6,-2.9v-6c0,-1.7 1.3,-3 3,-3v0c1.7,-0.1 3,1.2 3,2.9z"></path></g></g></svg>