<svg xmlns="http://www.w3.org/2000/svg" xmlns:xlink="http://www.w3.org/1999/xlink" viewBox="0,0,256,256" width="50px" height="50px" fill-rule="nonzero"><g fill="#00b3ff" fill-rule="nonzero" stroke="none" stroke-width="1" stroke-linecap="butt" stroke-linejoin="miter" stroke-miterlimit="10" stroke-dasharray="" stroke-dashoffset="0" font-family="none" font-weight="none" font-size="none" text-anchor="none" style="mix-blend-mode: normal"><g transform="scale(5.12,5.12)"><path d="M17,4c-2.76172,0 -5,2.23828 -5,5c0,2.76172 2.23828,5 5,5c2.76172,0 5,-2.23828 5,-5c0,-2.76172 -2.23828,-5 -5,-5zM32.80078,4c-2.76172,0 -5,2.23828 -5,5c0,2.76172 2.23828,5 5,5c2.76172,0 5,-2.23828 5,-5c0,-2.76172 -2.23828,-5 -5,-5zM17,15c-1.89844,0 -3.67187,0.67969 -5.07812,1.83594c2.41797,1.24609 4.07813,3.76172 4.07813,6.66406c0,2.25781 -1.00391,4.27734 -2.58594,5.65234c1.13281,0.56641 2.14063,1.32813 2.98047,2.22656c0.98438,-0.93359 2.14063,-1.71875 3.43359,-2.28516c-1.72656,-1.47266 -2.82812,-3.65625 -2.82812,-6.09375c0,-2.95312 1.61719,-5.53516 4.00391,-6.92187c-1.19531,-0.69141 -2.56641,-1.07812 -4.00391,-1.07812zM33,15c-1.4375,0 -2.80859,0.38672 -4.00391,1.07813c2.38672,1.38672 4.00391,3.96875 4.00391,6.92188c0,2.4375 -1.10156,4.62109 -2.82812,6.09375c0.88672,0.39063 1.70703,0.88281 2.45703,1.45313c1.02734,-0.80469 2.19141,-1.44141 3.44922,-1.875c-1.28516,-1.34766 -2.07812,-3.16797 -2.07812,-5.17187c0,-2.90234 1.66016,-5.41797 4.07813,-6.66406c-1.40625,-1.15625 -3.17969,-1.83594 -5.07812,-1.83594zM25,17c-3.3125,0 -6,2.6875 -6,6c0,3.3125 2.6875,6 6,6c3.3125,0 6,-2.6875 6,-6c0,-3.3125 -2.6875,-6 -6,-6zM8.5,18c-3.03906,0 -5.5,2.46094 -5.5,5.5c0,3.03906 2.46094,5.5 5.5,5.5c3.03906,0 5.5,-2.46094 5.5,-5.5c0,-3.03906 -2.46094,-5.5 -5.5,-5.5zM41.5,18c-3.03906,0 -5.5,2.46094 -5.5,5.5c0,1.92969 0.99219,3.62109 2.49609,4.60547c0.49219,-0.0625 0.99219,-0.10547 1.50391,-0.10547c1.26953,0 2.49219,0.19922 3.64063,0.56641c1.97656,-0.83594 3.35938,-2.78906 3.35938,-5.06641c0,-3.03906 -2.46094,-5.5 -5.5,-5.5zM8.5,30c-4.6875,0 -8.5,3.52344 -8.5,7.85938v3.85547c0,0.32813 0.16406,0.63672 0.4375,0.82422c0.21484,0.14844 2.29297,1.46094 8.0625,1.46094c1.875,0 3.35938,-0.14062 4.51563,-0.33203c-0.00391,-0.03906 -0.01562,-0.07812 -0.01562,-0.12109v-4.53906c0,-2.27734 0.75781,-4.39062 2.05078,-6.14844c-1.55859,-1.74609 -3.91797,-2.85937 -6.55078,-2.85937zM25,30c-5.51562,0 -10,4.03906 -10,9.00781v4.53906c0,0.30469 0.15625,0.58984 0.42188,0.76563c0.25391,0.17188 2.70703,1.6875 9.57813,1.6875c1.76953,0 3.24219,-0.10156 4.46484,-0.25391c-0.93359,-1.70703 -1.46484,-3.66406 -1.46484,-5.74609c0,-3.11719 1.19922,-5.94922 3.14844,-8.08203c-1.69922,-1.19531 -3.82812,-1.91797 -6.14844,-1.91797zM40,30c-5.51172,0 -10,4.48828 -10,10c0,5.51172 4.48828,10 10,10c5.51172,0 10,-4.48828 10,-10c0,-5.51172 -4.48828,-10 -10,-10zM40,32c4.42969,0 8,3.57031 8,8c0,4.42969 -3.57031,8 -8,8c-4.42969,0 -8,-3.57031 -8,-8c0,-4.42969 3.57031,-8 8,-8zM44.23828,35.34766l-5.39062,6.29297l-3.25,-2.44141l-1.19531,1.60156l4.75,3.55859l6.60938,-7.70703z"></path></g></g></svg>