<svg xmlns="http://www.w3.org/2000/svg" xmlns:xlink="http://www.w3.org/1999/xlink" viewBox="0,0,256,256" width="50px" height="50px" fill-rule="nonzero"><g fill="#00b3ff" fill-rule="nonzero" stroke="none" stroke-width="1" stroke-linecap="butt" stroke-linejoin="miter" stroke-miterlimit="10" stroke-dasharray="" stroke-dashoffset="0" font-family="none" font-weight="none" font-size="none" text-anchor="none" style="mix-blend-mode: normal"><g transform="scale(5.12,5.12)"><path d="M13,7c-0.55078,0 -1,0.44922 -1,1c0,0.55078 0.44922,1 1,1h6.5625l-17.28125,17.28125c-0.39062,0.39063 -0.39062,1.04688 0,1.4375c0.19531,0.19531 0.46094,0.28125 0.71875,0.28125c0.25781,0 0.52344,-0.08594 0.71875,-0.28125l17.28125,-17.28125v6.5625c0,0.55078 0.44922,1 1,1c0.55078,0 1,-0.44922 1,-1v-10zM34,11v39h14v-39zM18,24v26h14v-26zM2,35v15h14v-15z"></path></g></g></svg>