<svg xmlns="http://www.w3.org/2000/svg" xmlns:xlink="http://www.w3.org/1999/xlink" viewBox="0,0,256,256" width="50px" height="50px" fill-rule="nonzero"><g fill="#00b3ff" fill-rule="nonzero" stroke="none" stroke-width="1" stroke-linecap="butt" stroke-linejoin="miter" stroke-miterlimit="10" stroke-dasharray="" stroke-dashoffset="0" font-family="none" font-weight="none" font-size="none" text-anchor="none" style="mix-blend-mode: normal"><g transform="scale(5.12,5.12)"><path d="M3,0c-1.65234,0 -3,1.34766 -3,3v44c0,1.65234 1.34766,3 3,3h34c1.65234,0 3,-1.34766 3,-3v-8.84375c-0.54297,0.46875 -1.21484,0.75 -1.9375,0.75c-0.80078,0 -1.55859,-0.33984 -2.125,-0.90625c-1.17187,-1.17187 -1.17187,-3.04687 0,-4.21875l4.0625,-4.09375v-1.6875h-23c-1.65234,0 -3,-1.34766 -3,-3c0,-1.65234 1.34766,-3 3,-3h23v-1.6875l-4.0625,-4.09375c-0.56641,-0.56641 -0.875,-1.29297 -0.875,-2.09375c0,-0.80078 0.30859,-1.55859 0.875,-2.125c0.56641,-0.56641 1.32422,-0.875 2.125,-0.875c0.72266,0 1.39453,0.25 1.9375,0.71875v-8.84375c0,-1.65234 -1.34766,-3 -3,-3zM38.0625,13.125c-0.25391,0 -0.52344,0.08594 -0.71875,0.28125c-0.39062,0.39063 -0.39062,1.01563 0,1.40625l9.1875,9.1875h-29.53125c-0.55078,0 -1,0.44922 -1,1c0,0.55078 0.44922,1 1,1h29.53125l-9.1875,9.1875c-0.39062,0.39063 -0.39062,1.01563 0,1.40625c0.19531,0.19531 0.46094,0.3125 0.71875,0.3125c0.25781,0 0.49219,-0.11719 0.6875,-0.3125l11.59375,-11.59375l-11.59375,-11.59375c-0.19531,-0.19531 -0.43359,-0.28125 -0.6875,-0.28125z"></path></g></g></svg>