<svg xmlns="http://www.w3.org/2000/svg" xmlns:xlink="http://www.w3.org/1999/xlink" viewBox="0,0,256,256" width="50px" height="50px" fill-rule="nonzero"><g fill="#00b3ff" fill-rule="nonzero" stroke="none" stroke-width="1" stroke-linecap="butt" stroke-linejoin="miter" stroke-miterlimit="10" stroke-dasharray="" stroke-dashoffset="0" font-family="none" font-weight="none" font-size="none" text-anchor="none" style="mix-blend-mode: normal"><g transform="scale(5.12,5.12)"><path d="M25,2c-4.60937,0 -8.29687,2.56641 -8.90625,6h-13.09375c-1.65234,0 -3,1.34766 -3,3v17c0,0.55078 0.44922,1 1,1h19c0,-1.65234 1.34766,-3 3,-3h4c1.65234,0 3,1.34766 3,3h19c0.55078,0 1,-0.44922 1,-1v-17c0,-1.65234 -1.34766,-3 -3,-3h-13.09375c-0.60937,-3.43359 -4.29687,-6 -8.90625,-6zM25,4c3.44922,0 6.25,1.6875 6.875,4h-13.75c0.625,-2.3125 3.42578,-4 6.875,-4zM23,28c-0.55078,0 -1,0.44922 -1,1v2c0,0.55078 0.44922,1 1,1h4c0.55078,0 1,-0.44922 1,-1v-2c0,-0.55078 -0.44922,-1 -1,-1zM0,30.8125v14.1875c0,1.65234 1.34766,3 3,3h44c1.65234,0 3,-1.34766 3,-3v-14.1875c-0.3125,0.11328 -0.64844,0.1875 -1,0.1875h-19c0,1.65234 -1.34766,3 -3,3h-4c-1.65234,0 -3,-1.34766 -3,-3h-19c-0.35156,0 -0.6875,-0.07422 -1,-0.1875z"></path></g></g></svg>