<svg xmlns="http://www.w3.org/2000/svg" xmlns:xlink="http://www.w3.org/1999/xlink" viewBox="0,0,256,256" width="50px" height="50px" fill-rule="nonzero"><g fill="#00b3ff" fill-rule="nonzero" stroke="none" stroke-width="1" stroke-linecap="butt" stroke-linejoin="miter" stroke-miterlimit="10" stroke-dasharray="" stroke-dashoffset="0" font-family="none" font-weight="none" font-size="none" text-anchor="none" style="mix-blend-mode: normal"><g transform="scale(5.12,5.12)"><path d="M14,0c-1.91016,0 -3.75781,0.32031 -5.5,1.08594c-0.33594,0.13281 -0.57422,0.44141 -0.61719,0.80469c-0.04687,0.36328 0.10938,0.71875 0.40625,0.92969c0.29297,0.21484 0.68359,0.25 1.01172,0.09375c1.45703,-0.63672 3.01172,-0.91406 4.69922,-0.91406c6.66406,0 12,5.33594 12,12c0,6.66406 -5.33594,12 -12,12c-6.66406,0 -12,-5.33594 -12,-12c0,-3.03906 1.16406,-5.75781 3,-7.91406v2.61328c-0.00391,0.35938 0.18359,0.69531 0.49609,0.87891c0.3125,0.17969 0.69531,0.17969 1.00781,0c0.3125,-0.18359 0.5,-0.51953 0.49609,-0.87891v-5.69922h-5.69922c-0.35937,-0.00391 -0.69531,0.18359 -0.87891,0.49609c-0.17969,0.3125 -0.17969,0.69531 0,1.00781c0.18359,0.3125 0.51953,0.5 0.87891,0.49609h1.99219c-2.00781,2.44922 -3.29297,5.55469 -3.29297,9c0,3.81641 1.52734,7.26953 4,9.79688v22.20313c0,1.10547 0.89453,2 2,2h40c1.10547,0 2,-0.89453 2,-2v-31h-20.04687c0.02734,-0.33203 0.04688,-0.66406 0.04688,-1c0,-0.33594 -0.02734,-0.66797 -0.05078,-1h20.05078v-7c0,-1.16016 -0.83984,-2 -2,-2h-5v-2c0,-1.09375 -0.90625,-2 -2,-2h-2c-1.09375,0 -2,0.90625 -2,2v2h-11.20312c-2.52734,-2.47266 -5.98047,-4 -9.79687,-4zM37,2h2v6h-2zM13.98438,4.98438c-0.55078,0.01172 -0.99219,0.46484 -0.98437,1.01563v7.83984c-0.03125,0.21484 0.00391,0.43359 0.10938,0.625c0.08984,0.17969 0.23438,0.32813 0.41016,0.42578l3.88281,2.91016c0.44141,0.33203 1.06641,0.24219 1.39844,-0.20312c0.33203,-0.44141 0.24219,-1.06641 -0.20312,-1.39844l-3.59766,-2.69922v-7.5c0.00391,-0.26953 -0.10156,-0.53125 -0.29297,-0.72266c-0.19141,-0.19141 -0.45312,-0.29687 -0.72266,-0.29297zM27,21h5v5h-5zM34,21h5v5h-5zM25,22.64453v0.07031l-0.14062,0.11719c0.05078,-0.05859 0.09375,-0.125 0.14063,-0.1875zM13,28h5v5h-5zM20,28h5v5h-5zM27,28h5v5h-5zM34,28h5v5h-5zM13,35h5v5h-5zM20,35h5v5h-5zM27,35h5v5h-5zM34,35h5v5h-5z"></path></g></g></svg>